<!-- <svg xmlns="http://www.w3.org/2000/svg" fill="none" viewBox="0 0 36 36">
  <path fill="#000" d="M22.25 4h-8.5a1 1 0 0 0-.96.73l-5.54 19.4a.5.5 0 0 0 .62.62l5.05-1.44a2 2 0 0 0 1.38-1.4l3.22-11.66a.5.5 0 0 1 .96 0l3.22 11.67a2 2 0 0 0 1.38 1.39l5.05 1.44a.5.5 0 0 0 .62-.62l-5.54-19.4a1 1 0 0 0-.96-.73Z"/>
  <path fill="url(#gradient)" d="M18 28a7.63 7.63 0 0 1-5-2c-1.4 2.1-.35 4.35.6 5.55.14.17.41.07.47-.15.44-1.8 2.93-1.22 2.93.6 0 2.28.87 3.4 1.72 3.81.34.16.59-.2.49-.56-.31-1.05-.29-2.46 1.29-3.25 3-1.5 3.17-4.83 2.5-6-.67.67-2.6 2-5 2Z"/>
  <defs>
    <linearGradient id="gradient" x1="16" x2="16" y1="32" y2="24" gradientUnits="userSpaceOnUse">
      <stop stop-color="#000"/>
      <stop offset="1" stop-color="#000" stop-opacity="0"/>
    </linearGradient>
  </defs>
  <style>
    @media (prefers-color-scheme:dark){:root{filter:invert(100%)}}
  </style>
</svg> -->
<svg width='64' height='64' viewBox='0 0 64 64' fill='none'
  xmlns='http://www.w3.org/2000/svg'>
  <path d='M17.5906 31.76L29.1906 48H6.79063V20.16H29.1906L17.5906 31.76ZM16.5506 32.8L8.27062 41.08V46.52H26.3506L16.5506 32.8ZM39.04 48H37.56V20.16H48.76C50.6267 20.16 52.3467 20.56 53.92 21.36C55.52 22.16 56.7867 23.2933 57.72 24.76C58.6533 26.2267 59.12 27.92 59.12 29.84C59.12 31.68 58.64 33.3733 57.68 34.92C56.7467 36.4667 55.4667 37.6533 53.84 38.48C52.4267 39.2 50.7333 39.56 48.76 39.56H39.04V48ZM39.04 38.08H48.76C50.4667 38.08 51.8667 37.8133 52.96 37.28C54.3733 36.6133 55.5067 35.6133 56.36 34.28C57.2133 32.9467 57.64 31.4667 57.64 29.84C57.64 28.24 57.2133 26.7733 56.36 25.44C55.5067 24.1067 54.36 23.1067 52.92 22.44C51.8267 21.9067 50.44 21.64 48.76 21.64H39.04V38.08Z'></path>
  <style>
    path {
      fill: #be185d;
    }
    @media (prefers-color-scheme: dark) {
      path {
        fill: white;
      }
    }
  </style>
</svg>
